<svg xmlns="http://www.w3.org/2000/svg" viewBox="0 0 762.31 243.91"><defs><style>.cls-1{fill:red;}.cls-1,.cls-2,.cls-3,.cls-5{stroke:#000;stroke-miterlimit:10;}.cls-3{fill:gray;}.cls-4{fill:#fff;}.cls-5{fill:#666;}</style></defs><title>JoeSatriani_FullGuitar</title><g id="Base_and_Head" data-name="Base and Head"><path class="cls-1" d="M244.5,417.5s-14,0-14,20c0,0-4,11,11,24,0,0,11,8,36,16a12,12,0,0,1,0,15,19.62,19.62,0,0,1-13,5c-8,0-18-4-18-4s-32-18-46-17c0,0-22,1-30,8,0,0-42,26-62,28,1,0-23,10-48-2,0,0-28-11-37-33,0,0-9-15-9-46,1,1,0-35,0-35v-10s4-75,39-101c0,0,14-12,40-12a105,105,0,0,1,46,11s21,10,41,22c0,0,25,19,70,0,0,0,43-16,64-16,1,0,32-1,36,16a3.49,3.49,0,0,0,2-1v3h4s1-6,3,0c0,1,1,8-3,9l-1-4h-3s-4,7-21,7c0,0-33,8-41,25,0,0-11,15-1,27" transform="translate(-14 -273)"/><path class="cls-1" d="M289.5,372.5l.32,0-65.32,0s0-12-8-12-10,11-10,11-8,22,1,46c0,0,3.53,9,10.77,10,.46,0,5.23,0,6.23-10H245" transform="translate(-14 -273)"/><path class="cls-1" d="M654.5,426.5s30-7,118-2l3-3s-10-6-11-13v-8l-123-35s-2.62,11.71-14.81,12.85c.62.3-3.19.15-3.19.15v34" transform="translate(-14 -273)"/><path class="cls-1" d="M654.5,426.5s-18-14-31-14" transform="translate(-14 -273)"/></g><g id="Neck"><path class="cls-2" d="M291.48,372.52l-67,0c0-11-7-12-8-12-8,2-9,11-10,11a71.31,71.31,0,0,0,1,46s4,10,10,10,7-10,7-10l24.73.15" transform="translate(-14 -273)"/><polyline class="cls-2" points="276.5 99.5 609.03 105.49 609.5 105.5"/><path class="cls-2" d="M623.5,378v34.5c2.18,0-376.17,5.13-376.17,5.13l41.26-45.11" transform="translate(-14 -273)"/></g><g id="Wire_Base" data-name="Wire Base"><path class="cls-3" d="M54.5,368.5v52a2.94,2.94,0,0,0,3,3h27s0,9,5,9h29l-1-72-2-2h-27s-3-1-3,7h-27S54.5,366.5,54.5,368.5Z" transform="translate(-14 -273)"/><rect class="cls-3" x="107" y="87.5" width="32.5" height="69.5"/><polygon class="cls-3" points="595.5 105.5 595.5 139.5 609.04 139.5 609.04 105.52 595.5 105.5"/><ellipse class="cls-3" cx="638" cy="105.5" rx="6.5" ry="6"/><ellipse class="cls-3" cx="656" cy="110.5" rx="6.5" ry="6"/><ellipse class="cls-3" cx="675" cy="115.5" rx="6.5" ry="6"/><ellipse class="cls-3" cx="694" cy="121.5" rx="6.5" ry="6"/><ellipse class="cls-3" cx="712" cy="127.5" rx="6.5" ry="6"/><ellipse class="cls-3" cx="731" cy="132.5" rx="6.5" ry="6"/><polygon class="cls-3" points="621.5 140.34 621.5 102.5 626.5 102.5 626.5 141.5 624 141.29 621.5 140.34"/></g><g id="Strings"><line class="cls-4" x1="631.81" y1="107.34" x2="98" y2="99.5"/></g><g id="String_2" data-name="String 2"><line class="cls-4" x1="649.6" y1="111.5" x2="97.5" y2="108.5"/></g><g id="String_3" data-name="String 3"><line class="cls-4" x1="97.5" y1="116.5" x2="668.5" y2="117.5"/></g><g id="String_4" data-name="String 4"><line class="cls-4" x1="687.5" y1="122.5" x2="97.5" y2="124.5"/></g><g id="String_5" data-name="String 5"><line class="cls-4" x1="97.5" y1="133.5" x2="705.5" y2="128.5"/></g><g id="String_6" data-name="String 6"><line class="cls-4" x1="724.6" y1="133.5" x2="97.5" y2="142.5"/></g><g id="Plugs"><circle class="cls-5" cx="52" cy="194" r="6.5"/><ellipse class="cls-5" cx="108.5" cy="182.5" rx="7" ry="6"/><circle class="cls-3" cx="89" cy="211" r="7.5"/></g><g id="Whammy_Bar" data-name="Whammy Bar"><path class="cls-2" d="M153.5,438.5l46,3s2,3,0,4l-49-3-58-16s-2-3,2-4Z" transform="translate(-14 -273)"/></g></svg>