<svg id="Layer_1" data-name="Layer 1" xmlns="http://www.w3.org/2000/svg" viewBox="0 0 122.15 322.99"><defs><style>.cls-1,.cls-2{stroke:#000;stroke-miterlimit:10;}.cls-2{fill:#fff;}</style></defs><title>MusicNotes-5</title><path class="cls-1" d="M24.7,195.34s22-11,30-14c0,0,26-12,34-14,0,0,13-6,12-47,0,0,21,27,1,56a149.79,149.79,0,0,0,1,28s5,34-27,40c1,1-63,20-66,66l-9,11,32-268s4-45,41-52,47,32,47,32,10,36-35,54c0,0-23,9-46-10C40.7,77.34,24.7,195.34,24.7,195.34Z"/><path class="cls-2" d="M92.7,186.34s5,24-7,34c0,0-12,9-31,11,0,0-30,17-37,23C18.7,253.34,17.7,203.34,92.7,186.34Z"/></svg>