<svg id="Layer_1" data-name="Layer 1" xmlns="http://www.w3.org/2000/svg" viewBox="0 0 328.05 280.86"><defs><style>.cls-1,.cls-2{stroke:#000;stroke-miterlimit:10;}.cls-2{fill:#fff;}</style></defs><title>MusicNotes-4</title><path class="cls-1" d="M287.5,241l20-143-162-5s-15-2-17,8c0,1-21,140-21,140s2,58-51,60-56-42-56-42,2-28,44-36,53,15,53,15l28-198s0-15,20-14l167,4s16-2,15,14c1,0-30,215-30,215s-4,54-64,46-37-56-37-56,9-19,44-22S287.5,241,287.5,241Z" transform="translate(0 -25.45)"/><path class="cls-2" d="M314.5,76l-5-3-169-6-9,7s-1,6,4,6l168,4Z" transform="translate(0 -25.45)"/><path class="cls-2" d="M247.5,0" transform="translate(0 -25.45)"/></svg>