<svg id="Layer_1" data-name="Layer 1" xmlns="http://www.w3.org/2000/svg" viewBox="0 0 274.53 317.86"><defs><style>.cls-1{stroke:#000;stroke-miterlimit:10;}.cls-2{fill:#fff;}</style></defs><title>MusicNotes-3</title><path class="cls-1" d="M129.79,248.5s-5,30-10,38c0,0-18,42-76,28,0,0-63-16-37-65s112-7,112-7l65-242h6s0,3,3,9c0,0-10,40,26,71,0,0,45,30,52,46,0,0,9,14-3,32,0,0-14,20-9,40,0,0,2,24-33,39,0,0,32-33,5-53l-69-56Z"/><path class="cls-2" d="M181.79,60.5s-3,8-3,12a79.22,79.22,0,0,1,10,6S181.79,63.5,181.79,60.5Z"/><path class="cls-2" d="M176.79,76.5l16,8s16,16,22,19c0,0,24,16,29,20,0,0,28,16,4,45,0,0-27-15-42-28C205.79,140.5,173.79,117.5,176.79,76.5Z"/></svg>