<svg id="Layer_1" data-name="Layer 1" xmlns="http://www.w3.org/2000/svg" viewBox="0 0 255.5 619.98"><defs><style>.cls-1,.cls-2{stroke:#000;stroke-miterlimit:10;}.cls-2{fill:#fff;}</style></defs><title>MusicNotes-1</title><path class="cls-1" d="M169.76,11.61s-12-25-28,0c0,1-47,50-34,158,1,1,7,28-13,43,1,1-100,86-94,158,1,1-7,61,65,99,0,0,12,15,99,12,1,1,13,62,13,78,1,1,0,33-33,42s-49,0-49,0,52-20,33-60-57-19-57-19-38,25-14,65,75,31,75,31,56-4,60-59c0-1,5-7-13-84,0,0,72-30,75-88,1,1,1-52-42-71s-68-14-68-14-4-23-9-34c1,0-12-22,31-56,1,0,55-53,36-121C203.76,91.61,185.76,29.61,169.76,11.61Z"/><path class="cls-2" d="M123.76,186.61s-19-69,13-121c1,0,16-14,26-20,1,0,24,19,20,52C182.76,97.61,187.76,129.61,123.76,186.61Z"/><path class="cls-2" d="M155.76,352.61l19,104s43-13,38-68C213.76,388.61,196.76,347.61,155.76,352.61Z"/><path class="cls-2" d="M118.76,258.61l9,49s-69,29-59,77,47,52,47,52-21-31-15-57,36-24,36-24l24,111s-107,38-130-77C30.76,390.61,13.76,326.61,118.76,258.61Z"/></svg>