<svg xmlns="http://www.w3.org/2000/svg" viewBox="0 0 1765.71 556.74"><defs><style>.cls-1{fill:none;stroke:#000;stroke-miterlimit:10;}</style></defs><title>Asset 1</title><g id="Layer_2" data-name="Layer 2"><g id="Lines"><path class="cls-1" d="M.36,121.39s416-272,859,0c2,4,190,151,509,101,4,2,337-40,397-56"/><path class="cls-1" d="M.36,224.39s400-307,899,0c3-3,182,127,460,74,4,0,289-59,406-107"/><path class="cls-1" d="M.36,347.39s400-295,800-88c1,0,299,189,565,112,3,2,265-75,400-154"/><path class="cls-1" d="M.36,449.39s359-295,846-85c1,0,280,150,564,68,3,0,229-82,355-193"/><path class="cls-1" d="M.36,556.39s303-312,825-99c1-1,311,144,590,38,3,0,214-90,350-226"/></g></g></svg>